<svg xmlns="http://www.w3.org/2000/svg" version="1.1" xmlns:xlink="http://www.w3.org/1999/xlink" xmlns:svgjs="http://svgjs.dev/svgjs" width="100" height="50" viewBox="0 0 2000 620"><g transform="matrix(1,0,0,1,-2.460477272727303,0.3259704999999258)"><svg viewBox="0 0 200 62" data-background-color="#ffffff" preserveAspectRatio="xMidYMid meet" height="620" width="2000" xmlns="http://www.w3.org/2000/svg" xmlns:xlink="http://www.w3.org/1999/xlink"><g id="tight-bounds" transform="matrix(1,0,0,1,0.24604772727272461,-0.03259704999999258)"><svg viewBox="0 0 199.50790454545455 62.0651941" height="62.0651941" width="199.50790454545455"><g><svg viewBox="0 0 199.50790454545455 62.0651941" height="62.0651941" width="199.50790454545455"><g><svg viewBox="0 0 199.50790454545455 62.0651941" height="62.0651941" width="199.50790454545455"><g id="textblocktransform"><svg viewBox="0 0 199.50790454545455 62.0651941" height="62.0651941" width="199.50790454545455" id="textblock"><g><svg viewBox="0 0 199.50790454545455 33.475" height="33.475" width="199.50790454545455"><g><svg><g></g><g></g></svg></g><g><svg><g><svg></svg></g><g></g></svg></g><g id="text-0"><svg viewBox="0 0 199.50790454545455 33.475" height="33.475" width="199.50790454545455"><g transform="matrix(1,0,0,1,0,0)"><svg width="28.475" viewBox="3.78 -33.48 28.47 33.48" height="33.475" data-palette-color="#e65a41"><path d="M7.93-31.95L7.93 0 3.78 0 3.78-31.95 7.93-31.95ZM6 0L6-3.53 22.85-3.53 22.85 0 6 0ZM31.77 0L27.72 0 27.72-24.4 31.77-24.4 31.77 0ZM29.75-28.4L29.75-28.4Q28.5-28.4 27.89-29.06 27.27-29.73 27.27-30.88L27.27-30.88 27.27-31Q27.27-32.18 27.89-32.83 28.5-33.48 29.75-33.48L29.75-33.48Q31-33.48 31.62-32.83 32.25-32.18 32.25-31L32.25-31 32.25-30.88Q32.25-29.7 31.62-29.05 31-28.4 29.75-28.4Z" opacity="1" transform="matrix(1,0,0,1,0,0)" fill="#e65a41" class="wordmark-text-0" data-fill-palette-color="primary"></path></svg></g><g><svg xmlns="http://www.w3.org/2000/svg" data-name="Your Icon" viewBox="4 39 52 11" x="41.26245" y="0" height="33.475" width="158.24545454545455" class="icon-cg-0" data-fill-palette-color="accent" id="cg-0"></svg></g></svg></g></svg></g><g transform="matrix(1,0,0,1,82.06917263657704,41.377644100000005)"><svg viewBox="0 0 35.36955927230048 20.68755" height="20.68755" width="35.36955927230048"><g transform="matrix(1,0,0,1,0,0)"><svg width="35.36955927230048" viewBox="3.25 -31.95 54.62 31.95" height="20.68755" data-palette-color="#e65a41"><path d="M7.28 0L3.25 0 4.48-31.95 10.9-31.95 18.48-8.85 18.82-8.85 26.4-31.95 32.85-31.95 34.08 0 30.05 0 29.6-13.48 29.18-27.63 28.73-27.63 20.83-3.68 16.5-3.68 8.6-27.63 8.15-27.63 7.7-13.45 7.28 0ZM44.2-3.35L57.87-3.35 57.87 0 39.35 0 39.35-3.05 52.92-21.08 39.4-21.08 39.4-24.4 57.77-24.4 57.77-21.38 44.2-3.35Z" opacity="1" transform="matrix(1,0,0,1,0,0)" fill="#e65a41" class="slogan-text-1" data-fill-palette-color="secondary" id="text-1"></path></svg></g></svg></g></svg></g></svg></g><g></g></svg></g><defs></defs><mask id="df081447-c4ad-4df2-b190-e0e2902f9f2b"><g id="SvgjsG1235"><svg viewBox="0 0 199.50790454545455 62.0651941" height="62.0651941" width="199.50790454545455"><g><svg viewBox="0 0 199.50790454545455 62.0651941" height="62.0651941" width="199.50790454545455"><g><svg viewBox="0 0 199.50790454545455 62.0651941" height="62.0651941" width="199.50790454545455"><g id="SvgjsG1234"><svg viewBox="0 0 199.50790454545455 62.0651941" height="62.0651941" width="199.50790454545455" id="SvgjsSvg1233"><g><svg viewBox="0 0 199.50790454545455 33.475" height="33.475" width="199.50790454545455"><g><svg><g></g><g></g></svg></g><g><svg><g><svg></svg></g><g></g></svg></g><g id="SvgjsG1232"><svg viewBox="0 0 199.50790454545455 33.475" height="33.475" width="199.50790454545455"><g transform="matrix(1,0,0,1,0,0)"><svg width="28.475" viewBox="3.78 -33.48 28.47 33.48" height="33.475" data-palette-color="#e65a41"><path d="M7.93-31.95L7.93 0 3.78 0 3.78-31.95 7.93-31.95ZM6 0L6-3.53 22.85-3.53 22.85 0 6 0ZM31.77 0L27.72 0 27.72-24.4 31.77-24.4 31.77 0ZM29.75-28.4L29.75-28.4Q28.5-28.4 27.89-29.06 27.27-29.73 27.27-30.88L27.27-30.88 27.27-31Q27.27-32.18 27.89-32.83 28.5-33.48 29.75-33.48L29.75-33.48Q31-33.48 31.62-32.83 32.25-32.18 32.25-31L32.25-31 32.25-30.88Q32.25-29.7 31.62-29.05 31-28.4 29.75-28.4Z" opacity="1" transform="matrix(1,0,0,1,0,0)" fill="black" class="wordmark-text-0"></path></svg></g><g><svg xmlns="http://www.w3.org/2000/svg" data-name="Your Icon" viewBox="4 39 52 11" x="41.26245" y="0" height="33.475" width="158.24545454545455" class="icon-cg-0" data-fill-palette-color="accent" id="SvgjsSvg1231"><path d="M32.5 45h-15a2.5 2.5 0 0 0 0 5h15a2.5 2.5 0 0 0 0-5Z" fill="white"></path><circle cx="7.5" cy="42.5" r="3.5" fill="white"></circle><circle cx="42.5" cy="42.5" r="3.5" fill="white"></circle><circle cx="52.5" cy="42.5" r="3.5" fill="white"></circle></svg></g></svg></g></svg></g><g transform="matrix(1,0,0,1,82.06917263657704,41.377644100000005)"><svg viewBox="0 0 35.36955927230048 20.68755" height="20.68755" width="35.36955927230048"><g transform="matrix(1,0,0,1,0,0)"><svg width="35.36955927230048" viewBox="3.25 -31.95 54.62 31.95" height="20.68755" data-palette-color="#e65a41"><path d="M7.28 0L3.25 0 4.48-31.95 10.9-31.95 18.48-8.85 18.82-8.85 26.4-31.95 32.85-31.95 34.08 0 30.05 0 29.6-13.48 29.18-27.63 28.73-27.63 20.83-3.68 16.5-3.68 8.6-27.63 8.15-27.63 7.7-13.45 7.28 0ZM44.2-3.35L57.87-3.35 57.87 0 39.35 0 39.35-3.05 52.92-21.08 39.4-21.08 39.4-24.4 57.77-24.4 57.77-21.38 44.2-3.35Z" opacity="1" transform="matrix(1,0,0,1,0,0)" fill="black" class="slogan-text-1" id="SvgjsPath1230"></path></svg></g></svg></g></svg></g></svg></g><g></g></svg></g><defs><mask></mask></defs></svg><rect width="199.50790454545455" height="62.0651941" fill="black" stroke="none" visibility="hidden"></rect></g></mask><linearGradient x1="0" x2="1" y1="0.5" y2="0.5" id="e1f784e5-9179-452a-a04f-6940b0e0eff7"><stop stop-color="#ffa62e" offset="0"></stop><stop stop-color="#f71b3d" offset="1"></stop></linearGradient><rect width="199.50790454545455" height="62.06519410000001" fill="url(#e1f784e5-9179-452a-a04f-6940b0e0eff7)" mask="url(#df081447-c4ad-4df2-b190-e0e2902f9f2b)" data-fill-palette-color="accent"></rect></svg><rect width="199.50790454545455" height="62.0651941" fill="none" stroke="none" visibility="hidden"></rect></g></svg></g></svg>